<svg height="512pt" viewBox="-64 0 512 512.00023" width="512pt" xmlns="http://www.w3.org/2000/svg"><path d="m10.792969 169.742188c0 92.632812 38.398437 127.210937 65.042969 146.558593h72.25v-48.800781l-106.546876-97.757812zm0 0" fill="#00dcc3"/><path d="m41.539062 169.742188.160157.148437c.042969 92.523437 38.410156 127.074219 65.042969 146.410156h-30.90625c-26.644532-19.347656-65.039063-53.925781-65.039063-146.558593zm0 0" fill="#00c4a2"/><path d="m284.339844 210.675781h53.015625c0 36.847657 23.542969 60.980469 39.910156 73.308594 8.242187 6.207031 8.996094 18.296875 1.59375 25.488281-14.167969 13.769532-39.859375 33.648438-79.898437 47.164063l-62.394532-62.871094zm0 0" fill="#00dcc3"/><path d="m236.566406 293.765625c21.582032 9.46875 40.441406 25.128906 53.074219 45.085937 11.226563 17.738282 23.902344 49.09375 13.382813 69.582032-5.882813 11.457031-19.371094 14.621094-31.289063 14.550781l-28.773437-13.550781zm0 0" fill="#ffcabd"/><path d="m119.296875 305.773438.214844-.074219c-.109375.035156-11.351563 3.582031-25.339844 2.21875-16.957031-1.65625-30.199219-9.503907-40.488281-23.992188-8.191406-11.539062-24.183594-14.25-35.71875-6.058593-11.539063 8.191406-14.253906 24.183593-6.058594 35.722656 19.441406 27.382812 47.121094 43.136718 80.050781 45.5625 3 .21875 5.914063.316406 8.71875.316406zm0 0" fill="#ffcabd"/><path d="m258.816406 403.574219c1.199219 37.703125 30.085938 46.25 44.402344 47.203125 8.28125.542968 15.363281-5.894532 15.484375-14.183594.15625-9.707031 2.5625-23.234375 13.046875-33.265625 8.28125-7.933594 22.144531-3.90625 24.921875 7.222656 2.585937 10.339844 4.039063 23.828125-.410156 36.503907-2.234375 6.386718.289062 13.4375 6.027343 17.023437 6.929688 4.332031 15.339844 11.601563 20.8125 23.199219 5.054688 10.730468-3.648437 22.773437-15.421874 21.410156-12.511719-1.445312-28.367188-6.3125-40.839844-20.167969-4.589844-5.105469-12.03125-6.457031-18.015625-3.09375-123.457031 69.347657-208.90625-10.957031-212.347657-81.78125zm0 0" fill="#f5e277"/><path d="m258.816406 403.574219v.011719l-131.433594.058593c2.328126 47.960938 42.273438 100.246094 106.144532 107.488281-81.703125 8.859376-134.363282-52.199218-137.050782-107.488281zm0 0" fill="#f0bc63"/><path d="m96.363281 399.699219c0 1.3125.03125 2.625.109375 3.945312 26.6875 10.074219 47.6875 15.863281 81.085938 15.863281 33.46875 0 54.527344-5.808593 81.253906-15.933593-.03125-1.261719-.050781-2.550781-.050781-3.875.6875-66.273438-22.195313-105.933594-22.195313-105.933594h-118.015625s-22.875 39.660156-22.1875 105.933594zm0 0" fill="#ffdcce"/><path d="m118.550781 293.765625h30.902344s-22.871094 39.660156-22.183594 105.933594c0 .722656.007813 7.652343.027344 13.976562-10.140625-2.574219-20.015625-5.949219-30.824219-10.03125-.082031-1.320312-.109375-2.632812-.109375-3.945312-.6875-66.273438 22.1875-105.933594 22.1875-105.933594zm0 0" fill="#ffcabd"/><path d="m177.558594 382.53125c-47.355469 7.199219-67.519532-3.96875-75.125-19.023438-13.859375-27.4375 16.265625-56.433593 43.703125-42.578124 19.015625 9.601562 31.421875 26.222656 31.421875 26.222656s12.410156-16.621094 31.425781-26.222656c27.4375-13.855469 57.5625 15.140624 43.703125 42.578124-7.605469 15.054688-27.769531 26.222657-75.128906 19.023438zm0 0" fill="#ff748f"/><path d="m143.339844 319.671875c-16.09375 6.476563-26.472656 25.5-17.210938 43.835937 5.136719 10.167969 16.011719 18.550782 37.109375 20.710938-37.203125 3.054688-54.015625-7.273438-60.804687-20.710938-13.390625-26.507812 14.273437-54.464843 40.90625-43.835937zm0 0" fill="#f9496e"/><path d="m344.324219 169.742188v-.699219c0-44.667969-17.257813-86.796875-48.597657-118.617188-31.304687-31.789062-73.09375-49.691406-117.667968-50.4179685l-.5-.0078125-.5.0078125c-44.570313.7265625-86.359375 18.6289065-117.664063 50.4179685-31.339843 31.820313-48.601562 73.949219-48.601562 118.617188v.699219zm0 0" fill="#00dcc3"/><path d="m59.394531 50.425781c31.304688-31.789062 73.09375-49.691406 117.664063-50.4179685l.5-.0078125.5.0078125c5.023437.0820313 10.011718.3945315 14.953125.9062495-38.90625 4.042969-74.9375 21.308594-102.710938 49.511719-31.339843 31.820313-48.601562 73.949219-48.601562 118.617188v.699219h-30.90625v-.699219c0-44.667969 17.261719-86.796875 48.601562-118.617188zm0 0" fill="#00c4a2"/><path d="m70.78125 179.988281c0 19.546875-15.847656 35.390625-35.390625 35.390625-19.546875 0-35.390625-15.84375-35.390625-35.390625 0-19.542969 15.84375-35.386719 35.390625-35.386719 19.542969 0 35.390625 15.84375 35.390625 35.386719zm0 0" fill="#ffcabd"/><path d="m355.121094 179.988281c0 19.546875-15.84375 35.390625-35.390625 35.390625-19.542969 0-35.390625-15.84375-35.390625-35.390625 0-19.542969 15.847656-35.386719 35.390625-35.386719 19.546875 0 35.390625 15.84375 35.390625 35.386719zm0 0" fill="#ffcabd"/><path d="m41.539062 169.042969c0-5.621094.339844-11.164063.992188-16.609375.742188-6.1875 3.144531-12.078125 7.074219-16.914063 9.242187-11.371093 31.335937-28.644531 81.054687-30.964843 46.179688-2.152344 71.960938-9.234376 84.957032-14.355469 6.535156-2.574219 13.933593-.429688 18.179687 5.164062 16.320313 21.503907 42.53125 35.703125 59.953125 43.347657 11.953125 5.242187 19.808594 17.039062 19.832031 30.09375v.238281.351562.347657c0 75.625-60.691406 137.070312-136.023437 138.296874-75.332032-1.226562-136.023438-62.675781-136.023438-138.296874 0-.117188 0-.234376 0-.347657.003906-.117187.003906-.234375.003906-.351562zm0 0" fill="#ffdcce"/><path d="m41.539062 169.042969c0-5.621094.339844-11.164063.992188-16.609375.742188-6.1875 3.144531-12.078125 7.074219-16.914063 5.335937-6.566406 14.972656-15.09375 31.722656-21.582031-.28125.332031-.554687.65625-.816406.976562-3.929688 4.839844-6.332031 10.726563-7.074219 16.914063-.65625 5.445313-.992188 31.59375-.992188 37.214844v.351562.347657c0 70.375 52.5625 128.464843 120.566407 137.175781-5.070313.648437-10.222657 1.035156-15.453125 1.121093-75.332032-1.226562-136.019532-62.671874-136.019532-138.296874 0-.117188 0-.234376 0-.347657 0-.117187 0-.234375 0-.351562zm0 0" fill="#ffcabd"/><path d="m104.820312 179.175781c4.269532 0 7.726563-3.460937 7.726563-7.726562v-14.144531c0-4.265626-3.457031-7.726563-7.726563-7.726563-4.265624 0-7.726562 3.460937-7.726562 7.726563v14.144531c0 4.265625 3.460938 7.726562 7.726562 7.726562zm0 0" fill="#3d4851"/><path d="m95.191406 199.960938h19.261719c4.265625 0 7.726563-3.457032 7.726563-7.726563 0-4.265625-3.460938-7.726563-7.726563-7.726563h-19.261719c-4.269531 0-7.726562 3.460938-7.726562 7.726563 0 4.269531 3.457031 7.726563 7.726562 7.726563zm0 0" fill="#ff889e"/><path d="m250.300781 179.175781c4.265625 0 7.726563-3.460937 7.726563-7.726562v-14.144531c0-4.265626-3.460938-7.726563-7.726563-7.726563-4.269531 0-7.726562 3.460937-7.726562 7.726563v14.144531c0 4.265625 3.457031 7.726562 7.726562 7.726562zm0 0" fill="#3d4851"/><path d="m240.667969 199.960938h19.261719c4.269531 0 7.726562-3.457032 7.726562-7.726563 0-4.265625-3.457031-7.726563-7.726562-7.726563h-19.261719c-4.265625 0-7.726563 3.460938-7.726563 7.726563 0 4.269531 3.460938 7.726563 7.726563 7.726563zm0 0" fill="#ff889e"/><path d="m177.558594 199.164062c7.300781 0 14.164062-3.0625 18.828125-8.398437 2.808593-3.210937 2.480469-8.09375-.730469-10.902344-3.214844-2.804687-8.09375-2.480469-10.902344.734375-1.730468 1.976563-4.351562 3.113282-7.195312 3.113282-2.839844 0-5.460938-1.136719-7.191406-3.113282-2.808594-3.214844-7.691407-3.542968-10.902344-.734375-3.214844 2.808594-3.542969 7.691407-.730469 10.902344 4.664063 5.335937 11.527344 8.398437 18.824219 8.398437zm0 0" fill="#3d4851"/><path d="m294.269531 17.101562c3.125 3.121094 4.742188 7.179688 4.859375 11.273438.113282 4.015625 3.34375 7.246094 7.359375 7.359375 4.09375.117187 8.152344 1.734375 11.273438 4.859375 3.125 3.121094 4.742187 7.179688 4.859375 11.269531.113281 4.019531 3.34375 7.25 7.359375 7.363281 4.09375.113282 8.148437 1.734376 11.273437 4.855469 6.441406 6.445313 6.535156 16.929688.105469 23.386719-25.796875 25.902344-54.808594 16.609375-70.949219.472656-16.136718-16.140625-25.429687-45.152344.472656-70.949218 6.460938-6.429688 16.945313-6.335938 23.386719.109374zm0 0" fill="#f5e277"/><path d="m270.886719 16.992188c5.988281-5.964844 15.445312-6.304688 21.925781-1.175782-.457031.363282-.898438.753906-1.324219 1.175782-25.898437 25.796874-16.609375 54.808593-.46875 70.949218 6.632813 6.632813 15.445313 12.105469 25.3125 14.457032-17.894531 4.371093-34.902343-3.441407-45.917969-14.457032-16.140624-16.140625-25.429687-45.152344.472657-70.949218zm0 0" fill="#f0bc63"/></svg>